<?xml version="1.0" encoding="UTF-8" standalone="no"?>
<svg width="22px" height="19px" viewBox="0 0 22 19" version="1.1" xmlns="http://www.w3.org/2000/svg" xmlns:xlink="http://www.w3.org/1999/xlink" xmlns:sketch="http://www.bohemiancoding.com/sketch/ns">
    <!-- Generator: Sketch 3.4.2 (15857) - http://www.bohemiancoding.com/sketch -->
    <title>1464452644_social-github</title>
    <desc>Created with Sketch.</desc>
    <defs></defs>
    <g id="Page-1" stroke="none" stroke-width="1" fill="none" fill-rule="evenodd" sketch:type="MSPage">
        <g id="1464452644_social-github" sketch:type="MSLayerGroup" fill="#FFFFFF">
            <g id="Layer_1" sketch:type="MSShapeGroup">
                <path d="M14.8264286,11.0405833 C15.2491429,11.0405833 15.5995714,11.2511667 15.9044286,11.6675833 C16.2061429,12.0871667 16.3664286,12.5985833 16.3664286,13.2113333 C16.3664286,13.8209167 16.2061429,14.3370833 15.9044286,14.7519167 C15.6011429,15.1715 15.2491429,15.3789167 14.8264286,15.3789167 C14.3895714,15.3789167 14.0061429,15.1715 13.7028571,14.7519167 C13.4011429,14.3370833 13.2408571,13.8209167 13.2408571,13.2113333 C13.2408571,12.5985833 13.4011429,12.0871667 13.7028571,11.6675833 C14.0045714,11.2495833 14.388,11.0405833 14.8264286,11.0405833 M20.2321429,5.4055 C21.4044286,6.68958333 22,8.24758333 22,10.0810833 C22,11.2654167 21.8648571,12.3341667 21.593,13.2841667 C21.318,14.2294167 20.9738571,15.0005 20.5652857,15.59425 C20.1504286,16.1895833 19.6412857,16.7105 19.0347143,17.1601667 C18.4281429,17.613 17.8702857,17.9391667 17.3611429,18.1465833 C16.8504286,18.3555833 16.269,18.5155 15.6152857,18.6310833 C14.96,18.7435 14.4744286,18.8068333 14.1334286,18.8258333 C13.7987143,18.8400833 13.4451429,18.848 13.057,18.848 C12.9705714,18.848 12.6751429,18.8543333 12.1974286,18.87175 C11.7244286,18.8923333 11.3174286,18.8970833 11,18.8970833 C10.6825714,18.8970833 10.2755714,18.8923333 9.80257143,18.87175 C9.32485714,18.8543333 9.02942857,18.848 8.943,18.848 C8.55642857,18.848 8.20128571,18.8400833 7.86657143,18.8258333 C7.524,18.8068333 7.04,18.7435 6.38471429,18.6310833 C5.72,18.5170833 5.14957143,18.3555833 4.63885714,18.1465833 C4.12971429,17.9391667 3.57028571,17.613 2.96685714,17.1601667 C2.35871429,16.7105 1.84957143,16.1895833 1.43471429,15.59425 C1.02457143,15.0005 0.682,14.2294167 0.407,13.2841667 C0.135142857,12.3341667 0,11.2654167 0,10.0810833 C0,8.24758333 0.595571429,6.688 1.76785714,5.4055 C1.639,5.34058333 1.63428571,4.69775 1.75528571,3.47858333 C1.85428571,2.25783333 2.112,1.13208333 2.53314286,0.102916667 C4.00085714,0.259666667 5.81742857,1.09883333 7.98757143,2.60616667 C8.71985714,2.41775 9.71771429,2.31641667 11,2.31641667 C12.3388571,2.31641667 13.343,2.41775 14.014,2.60775 C15.0024286,1.93483333 15.9468571,1.387 16.8504286,0.970583333 C17.7681429,0.557333333 18.4297143,0.311916667 18.8445714,0.247 L19.4668571,0.1045 C19.8911429,1.13208333 20.1488571,2.25783333 20.2462857,3.48016667 C20.3657143,4.69775 20.361,5.34058333 20.2321429,5.4055 M11.0471429,17.7871667 C13.6997143,17.7871667 15.6891429,17.4673333 17.0515714,16.8260833 C18.3951429,16.1864167 19.0818571,14.8659167 19.0818571,12.8740833 C19.0818571,11.71825 18.6528571,10.7524167 17.7901429,9.97975 C17.3532857,9.56333333 16.8268571,9.30683333 16.236,9.21025 C15.6467143,9.11366667 14.7447143,9.11366667 13.5331429,9.21025 C12.3247143,9.30841667 11.4934286,9.35275 11.0471429,9.35275 C10.4421429,9.35275 9.79,9.32425 8.97442857,9.25933333 C8.15728571,9.196 7.51614286,9.15641667 7.05257143,9.13583333 C6.59057143,9.12158333 6.09557143,9.17858333 5.54714286,9.30683333 C5.005,9.43666667 4.55871429,9.6615 4.20671429,9.97975 C3.388,10.7223333 2.96528571,11.685 2.96528571,12.8740833 C2.96528571,14.8659167 3.63471429,16.1864167 4.97671429,16.8260833 C6.31242857,17.4673333 8.29714286,17.7871667 10.9512857,17.7871667 L11.0471429,17.7871667 M7.22228571,11.0405833 C7.64342857,11.0405833 7.99542857,11.2511667 8.29871429,11.6675833 C8.60042857,12.0871667 8.76071429,12.5985833 8.76071429,13.2113333 C8.76071429,13.8209167 8.60042857,14.3370833 8.29871429,14.7519167 C7.997,15.1715 7.64342857,15.3789167 7.22228571,15.3789167 C6.78385714,15.3789167 6.402,15.1715 6.09714286,14.7519167 C5.79542857,14.3370833 5.63514286,13.8209167 5.63514286,13.2113333 C5.63514286,12.5985833 5.79542857,12.0871667 6.09714286,11.6675833 C6.40042857,11.2495833 6.78228571,11.0405833 7.22228571,11.0405833" id="Shape"></path>
            </g>
        </g>
    </g>
</svg>