<?xml version="1.0" encoding="UTF-8" standalone="no"?>
<svg width="24px" height="24px" viewBox="0 0 24 24" version="1.1" xmlns="http://www.w3.org/2000/svg" xmlns:xlink="http://www.w3.org/1999/xlink" xmlns:sketch="http://www.bohemiancoding.com/sketch/ns">
    <!-- Generator: Sketch 3.4.2 (15857) - http://www.bohemiancoding.com/sketch -->
    <title>linkedin</title>
    <desc>Created with Sketch.</desc>
    <defs></defs>
    <g id="Page-1" stroke="none" stroke-width="1" fill="none" fill-rule="evenodd" sketch:type="MSPage">
        <g id="1464452683_linkedin-social-media" sketch:type="MSLayerGroup" fill="#FFFFFF">
            <g id="Group" sketch:type="MSShapeGroup">
                <g id="black">
                    <g id="linkedin">
                        <path d="M5.04263607,23.8484153 L5.04263607,8.1637191 L0.194888604,8.1637191 L0.194888604,23.8484153 L5.04263607,23.8484153 L5.04263607,23.8484153 Z M5.04263607,2.6041839 C5.01376134,1.20056568 4.07829912,0.131868132 2.55861801,0.131868132 C1.03854135,0.131868132 0.0453296703,1.20056568 0.0453296703,2.6041839 C0.0453296703,3.97731629 1.00966662,5.07692307 2.500473,5.07692307 L2.52934773,5.07692307 C4.07829912,5.07692307 5.04263607,3.97731629 5.04263607,2.6041839 L5.04263607,2.6041839 Z M12.9514644,23.8484157 L12.9514644,14.9120339 C12.9514644,14.4337726 12.9860318,13.9555114 13.126669,13.6145727 C13.5111721,12.6585238 14.3862481,11.6688546 15.8555991,11.6688546 C17.7804821,11.6688546 18.9876669,12.7612789 18.9876669,14.9120337 L18.9876669,23.8484157 L23.8681318,23.8484157 L23.8681318,14.6729033 C23.8681318,9.75770383 21.2443245,7.47057344 17.7444942,7.47057344 C14.8749268,7.47057344 13.6153478,9.07487939 12.91595,10.1668303 L12.9509908,8.06906765 L8.07896743,8.06906765 C8.14904927,9.57061843 8.07896743,23.8484157 8.07896743,23.8484157 L12.9514644,23.8484157 L12.9514644,23.8484157 Z" id="Shape"></path>
                    </g>
                </g>
            </g>
        </g>
    </g>
</svg>