<?xml version="1.0" encoding="UTF-8" standalone="no"?>
<svg width="22px" height="19px" viewBox="0 0 22 19" version="1.1" xmlns="http://www.w3.org/2000/svg" xmlns:xlink="http://www.w3.org/1999/xlink" xmlns:sketch="http://www.bohemiancoding.com/sketch/ns">
    <!-- Generator: Sketch 3.4.2 (15857) - http://www.bohemiancoding.com/sketch -->
    <title>1464452820_53-medium</title>
    <desc>Created with Sketch.</desc>
    <defs></defs>
    <g id="Page-1" stroke="none" stroke-width="1" fill="none" fill-rule="evenodd" sketch:type="MSPage">
        <g id="1464452820_53-medium" sketch:type="MSLayerGroup" fill="#FFFFFF">
            <g id="Layer_1" sketch:type="MSShapeGroup">
                <path d="M6.88137241,18.644396 C6.88137241,18.657392 6.88068966,18.668868 6.87955172,18.678292 C6.8706,18.675404 6.86013103,18.670388 6.84829655,18.664612 L0.383634483,15.426404 C0.293131034,15.381032 0.1936,15.21976 0.1936,15.118224 L0.19397931,0.271244 L6.88137241,3.621096 L6.88137241,18.644396 L6.88137241,18.644396 Z M7.69734483,11.572672 L7.69734483,4.812624 L13.6956828,14.576876 L7.69734483,11.572672 L7.69734483,11.572672 Z M10.3717103,7.606612 L14.9686483,0.15542 L21.7153655,3.53476 L14.7925724,14.80442 L10.3717103,7.606612 L10.3717103,7.606612 Z M21.8874966,18.639456 C21.8874966,18.652376 21.8867379,18.663928 21.8856759,18.673276 C21.8767241,18.669704 21.8662552,18.665372 21.8548,18.659596 L15.3761034,15.414928 L21.8874966,4.814068 L21.8874966,18.639456 L21.8874966,18.639456 Z" id="Shape"></path>
            </g>
        </g>
    </g>
</svg>