<?xml version="1.0" encoding="UTF-8" standalone="no"?>
<svg width="24px" height="20px" viewBox="0 0 24 20" version="1.1" xmlns="http://www.w3.org/2000/svg" xmlns:xlink="http://www.w3.org/1999/xlink" xmlns:sketch="http://www.bohemiancoding.com/sketch/ns">
    <!-- Generator: Sketch 3.4.2 (15857) - http://www.bohemiancoding.com/sketch -->
    <title>Group</title>
    <desc>Created with Sketch.</desc>
    <defs></defs>
    <g id="Page-1" stroke="none" stroke-width="1" fill="none" fill-rule="evenodd" sketch:type="MSPage">
        <g id="1464452697_twitter-social-media" sketch:type="MSLayerGroup" fill="#FFFFFF">
            <g id="Group" sketch:type="MSShapeGroup">
                <g id="black">
                    <g id="twitter">
                        <path d="M19.8015095,1.74049591 C18.9481303,0.758715357 17.7321448,0.133188646 16.3863964,0.110522163 C13.8025412,0.0670022075 11.7075203,2.27637385 11.7075203,5.04508289 C11.7075203,5.43802941 11.7489122,5.82120955 11.8287312,6.18905226 C7.94017736,5.93382326 4.49256652,3.88483614 2.18499909,0.796229857 C1.7822552,1.53632979 1.55146425,2.40134479 1.55146425,3.32796455 C1.55146425,5.0821346 2.37747692,6.63894803 3.63291584,7.55815529 C2.86596923,7.52389279 2.14451946,7.28895557 1.51372127,6.90353716 C1.51326516,6.92460355 1.51326516,6.94567496 1.51326516,6.96711604 C1.51326516,9.41682121 3.12606516,11.471934 5.26646878,11.9506702 C4.87387331,12.0632414 4.46052488,12.1221545 4.03383529,12.1192914 C3.73234751,12.1172684 3.43918371,12.083437 3.1535457,12.0226914 C3.74888144,14.0316984 5.47673484,15.4976902 7.52420633,15.5461629 C5.92292308,16.8912116 3.90555475,17.6922809 1.71338281,17.687705 C1.33572488,17.6869166 0.963312219,17.6622229 0.597285068,17.614714 C2.66790407,19.0523671 5.12724163,19.8894079 7.76947871,19.8901094 C16.3754497,19.8923941 21.0816923,12.3139364 21.0816923,5.74054906 C21.0816923,5.52488309 21.0770172,5.3103708 21.0681231,5.09689425 C21.9822787,4.40761889 22.7754516,3.54342082 23.402715,2.55658501 C22.5637032,2.93929725 21.6618625,3.19347759 20.7155512,3.30009849 C21.6814751,2.69854656 22.4234497,1.73578291 22.772715,0.581256003 C21.8685937,1.13606592 20.8673213,1.53393776 19.8015095,1.74049591 L19.8015095,1.74049591 Z" id="Shape"></path>
                    </g>
                </g>
            </g>
        </g>
    </g>
</svg>